<?xml version="1.0" encoding="utf-8"?>
<?xml-stylesheet type="text/xsl" href="rss1.xsl"?>
<rss version="2.0" xmlns:atom="http://www.w3.org/2005/Atom" xmlns:content="http://purl.org/rss/1.0/modules/content/" xmlns:dc="http://purl.org/dc/elements/1.1/" xmlns:media="http://search.yahoo.com/mrss/">
<channel>
 <title>Getty</title>
 <link>http://www.gettyimg.com/</link>
 <atom:link href="http://www.gettyimg.com/" rel="self" type="application/rss+xml" />

 
                <item>
                <title><![CDATA[【HD Live Performances】HDTV - TVZ Especial Chorão (Charlie Brown Jr.) - HDTV 1080P AAC2.0 H264-chmt]]></title>
                <link><![CDATA[https://sharemania.us/threads/tvz-especial-chor%C3%A3o-charlie-brown-jr-hdtv-1080p-aac2-0-h264-chmt.241846/]]></link>
                <description><![CDATA[<article>
<blockquote class="messageText SelectQuoteContainer ugc baseHtml">
<img src="https://i.imgur.com/3UettVV.jpeg" class="bbCodeImage LbImage" alt="[​IMG]" data-url="https://i.imgur.com/3UettVV.jpeg" style=""> <br>
<br>
<i><span style="text-decoration: underline">Tracks:</span></i><br>
<b>Zóio de lula<br>
Só os loucos sabem<br>
Lutar pelo que é meu<br>
Só por uma noite<br>
Pontes indestrutíveis<br>
Proibida pra mim<br>
Ela vai voltar<br>
Céu azul</b><br>
<br>
<div class="ToggleTriggerAnchor bbCodeSpoilerContainer">
<button type="button" class="button bbCodeSpoilerButton ToggleTrigger Tooltip JsOnly" data-target="> .SpoilerTarget"><span>Spoiler: <span class="SpoilerTitle">MediaInfo</span></span></button>
<div class="SpoilerTarget bbCodeSpoilerText">General<br>
Unique ID : 242921447792922685381013353162678766304 (0xB6C0F81341A21E9EDB6870D9A20C8AE0)<br>
Complete name : C:\TVZ.Especial.Chorão.2024.1080p.HDTV.AAC2.0.H.264-chmt.mkv<br>
Format : Matroska<br>
Format version : Version 4 / Version 2<br>
File size : 1.31 GiB<br>
Duration : 38 min 16 s<br>
Overall bit rate mode : Variable<br>
Overall bit rate : 4 906 kb/s<br>
Encoded date : UTC 2024-04-10 00:03:00<br>
Writing application : mkvmerge v83.0 ('Circle Of Friends') 64-bit<br>
Writing library : libebml v1.4.5 + libmatroska v1.7.1<br>
<br>
Video<br>
ID : 1<br>
Format : AVC<br>
Format/Info : Advanced Video Codec<br>
Format profile : High@L4.2<br>
Format settings, CABAC : Yes<br>
Format settings, RefFrames : 4 frames<br>
Codec ID : V_MPEG4/ISO/AVC<br>
Duration : 38 min 16 s<br>
Bit rate mode : Variable<br>
Bit rate : 4 716 kb/s<br>
Maximum bit rate : 4 783 kb/s<br>
Width : 1 920 pixels<br>
Height : 1 080 pixels<br>
Display aspect ratio : 16:9<br>
Frame rate mode : Constant<br>
Frame rate : 29.970 (30000/1001) FPS<br>
Standard : Component<br>
Color space : YUV<br>
Chroma subsampling : 4:2:0<br>
Bit depth : 8 bits<br>
Scan type : Progressive<br>
Bits/(Pixel*Frame) : 0.076<br>
Stream size : 1.26 GiB (96%)<br>
Default : Yes<br>
Forced : No<br>
Color range : Limited<br>
Color primaries : BT.709<br>
Transfer characteristics : BT.709<br>
Matrix coefficients : BT.709<br>
<br>
Audio #1<br>
ID : 2<br>
Format : AAC<br>
Format/Info : Advanced Audio Codec<br>
Format profile : LC<br>
Codec ID : A_AAC<br>
Duration : 38 min 16 s<br>
Bit rate : 93.4 kb/s<br>
Channel(s) : 2 channels<br>
Channel positions : Front: L R<br>
Sampling rate : 48.0 kHz<br>
Frame rate : 46.875 FPS (1024 SPF)<br>
Compression mode : Lossy<br>
Stream size : 25.6 MiB (2%)<br>
Language : English<br>
Default : Yes<br>
Forced : No<br>
<br>
Audio #2<br>
ID : 3<br>
Format : AAC<br>
Format/Info : Advanced Audio Codec<br>
Format profile : LC<br>
Codec ID : A_AAC<br>
Duration : 38 min 16 s<br>
Bit rate : 93.4 kb/s<br>
Channel(s) : 2 channels<br>
Channel positions : Front: L R<br>
Sampling rate : 48.0 kHz<br>
Frame rate : 46.875 FPS (1024 SPF)<br>
Compression mode : Lossy<br>
Stream size : 25.6 MiB (2%)<br>
Language : Portuguese<br>
Default : Yes<br>
Forced : No</div>
</div><br>
<div class="bbCodeBlock bbCodeVfcHH HiddenContent">
<div class="attribution type">Hidden Content:</div>
<blockquote>You must either reply or click 'Like' to see the hidden information contained here.</blockquote>
</div>
<div class="messageTextEndMarker">&nbsp;</div>
</blockquote>
</article>]]></description>
                <author><![CDATA[chmt]]></author>
                </item>

                
                <item>
                <title><![CDATA[【TIDAL】WEB-RiP - Harry Styles - Watermelon Sugar [TIDAL HD Music Video]]]></title>
                <link><![CDATA[https://sharemania.us/threads/harry-styles-watermelon-sugar-tidal-hd-music-video.241847/]]></link>
                <description><![CDATA[<article>
<blockquote class="messageText SelectQuoteContainer ugc baseHtml">
<span style="font-size: 22px"><b>Harry Styles - Watermelon Sugar [TIDAL HD Music Video]</b></span><br>
<br>
<img src="https://imgur.com/GFikIJ4.jpg" class="bbCodeImage LbImage" alt="[​IMG]" data-url="https://imgur.com/GFikIJ4.jpg" style=""><br>
<br>
<div class="bbCodeBlock bbCodeCode">
<div class="type">Code:</div>
<pre>General
Format                         : MPEG-4
Format profile                 : Base Media
Codec ID                       : isom (isom/iso2/avc1/mp41)
File size                      : 126 MiB
Duration                       : 3 min 9 s
Overall bit rate mode          : Variable
Overall bit rate               : 5 557 kb/s
Writing application            : Lavf58.76.100

Video
ID                             : 1
Format                         : AVC
Format/Info                    : Advanced Video Codec
Format profile                 : High@L4
Format settings                : CABAC / 4 Ref Frames
Format settings, CABAC         : Yes
Format settings, Reference fra : 4 frames
Format settings, GOP           : M=4, N=72
Codec ID                       : avc1
Codec ID/Info                  : Advanced Video Coding
Duration                       : 3 min 9 s
Source duration                : 3 min 9 s
Bit rate                       : 5 234 kb/s
Width                          : 1 920 pixels
Height                         : 1 080 pixels
Display aspect ratio           : 16:9
Frame rate mode                : Variable
Frame rate                     : 23.851 FPS
Minimum frame rate             : 11.947 FPS
Maximum frame rate             : 23.981 FPS
Color space                    : YUV
Chroma subsampling             : 4:2:0
Bit depth                      : 8 bits
Scan type                      : Progressive
Bits/(Pixel*Frame)             : 0.106
Stream size                    : 118 MiB (94%)
Source stream size             : 118 MiB (94%)
Writing library                : x264 core 164
Encoding settings              : cabac=1 / ref=4 / deblock=1:0:0 / analyse=0x3:0x113 / me=hex / subme=8 / psy=1 / psy_rd=1.00:0.00 / mixed_ref=1 / me_range=16 / chroma_me=1 / trellis=2 / 8x8dct=1 / cqm=0 / deadzone=21,11 / fast_pskip=1 / chroma_qp_offset=-2 / threads=24 / lookahead_threads=4 / sliced_threads=0 / nr=0 / decimate=1 / interlaced=0 / bluray_compat=0 / constrained_intra=0 / bframes=3 / b_pyramid=2 / b_adapt=1 / b_bias=0 / direct=3 / weightb=1 / open_gop=0 / weightp=2 / keyint=72 / keyint_min=37 / scenecut=0 / intra_refresh=0 / rc_lookahead=50 / rc=crf / mbtree=1 / crf=22.0 / qcomp=0.60 / qpmin=0 / qpmax=69 / qpstep=4 / vbv_maxrate=5500 / vbv_bufsize=11000 / crf_max=0.0 / nal_hrd=none / filler=0 / ip_ratio=1.40 / aq=1:1.00
mdhd_Duration                  : 189848
Codec configuration box        : avcC

Audio
ID                             : 2
Format                         : AAC LC
Format/Info                    : Advanced Audio Codec Low Complexity
Codec ID                       : mp4a-40-2
Duration                       : 3 min 9 s
Bit rate mode                  : Variable
Bit rate                       : 318 kb/s
Maximum bit rate               : 323 kb/s
Channel(s)                     : 2 channels
Channel layout                 : L R
Sampling rate                  : 48.0 kHz
Frame rate                     : 46.875 FPS (1024 SPF)
Compression mode               : Lossy
Stream size                    : 7.20 MiB (6%)
Default                        : Yes
Alternate group                : 1
</pre>
</div>
<div class="bbCodeBlock bbCodeVfcHH HiddenContent">
<div class="attribution type">Hidden Content:</div>
<blockquote>You must reply before you can see the hidden data contained here.</blockquote>
</div><b>Password: sharemania</b>
<div class="messageTextEndMarker">&nbsp;</div>
</blockquote>
</article>]]></description>
                <author><![CDATA[abby0511]]></author>
                </item>

                </channel></rss>